<mxfile host="app.diagrams.net" modified="2020-07-31T03:17:48.353Z" agent="5.0 (Windows NT 10.0; WOW64) AppleWebKit/537.36 (KHTML, like Gecko) Chrome/78.0.3904.108 Safari/537.36" etag="iWxLFX8Dcyd8o8NmlgAQ" version="13.5.7" type="github" pages="2">
  <diagram id="C5RBs43oDa-KdzZeNtuy" name="Page-1">
    <mxGraphModel dx="1422" dy="770" grid="1" gridSize="10" guides="1" tooltips="1" connect="1" arrows="1" fold="1" page="1" pageScale="1" pageWidth="827" pageHeight="1169" math="0" shadow="0">
      <root>
        <mxCell id="WIyWlLk6GJQsqaUBKTNV-0" />
        <mxCell id="WIyWlLk6GJQsqaUBKTNV-1" parent="WIyWlLk6GJQsqaUBKTNV-0" />
        <mxCell id="WIyWlLk6GJQsqaUBKTNV-2" value="" style="rounded=0;html=1;jettySize=auto;orthogonalLoop=1;fontSize=11;endArrow=block;endFill=0;endSize=8;strokeWidth=1;shadow=0;labelBackgroundColor=none;edgeStyle=orthogonalEdgeStyle;" parent="WIyWlLk6GJQsqaUBKTNV-1" source="WIyWlLk6GJQsqaUBKTNV-3" target="WIyWlLk6GJQsqaUBKTNV-6" edge="1">
          <mxGeometry relative="1" as="geometry" />
        </mxCell>
        <mxCell id="WIyWlLk6GJQsqaUBKTNV-3" value="Lamp doesn&#39;t work" style="rounded=1;whiteSpace=wrap;html=1;fontSize=12;glass=0;strokeWidth=1;shadow=0;" parent="WIyWlLk6GJQsqaUBKTNV-1" vertex="1">
          <mxGeometry x="160" y="80" width="120" height="40" as="geometry" />
        </mxCell>
        <mxCell id="WIyWlLk6GJQsqaUBKTNV-4" value="Yes" style="rounded=0;html=1;jettySize=auto;orthogonalLoop=1;fontSize=11;endArrow=block;endFill=0;endSize=8;strokeWidth=1;shadow=0;labelBackgroundColor=none;edgeStyle=orthogonalEdgeStyle;" parent="WIyWlLk6GJQsqaUBKTNV-1" source="WIyWlLk6GJQsqaUBKTNV-6" target="WIyWlLk6GJQsqaUBKTNV-10" edge="1">
          <mxGeometry y="20" relative="1" as="geometry">
            <mxPoint as="offset" />
          </mxGeometry>
        </mxCell>
        <mxCell id="WIyWlLk6GJQsqaUBKTNV-5" value="No" style="edgeStyle=orthogonalEdgeStyle;rounded=0;html=1;jettySize=auto;orthogonalLoop=1;fontSize=11;endArrow=block;endFill=0;endSize=8;strokeWidth=1;shadow=0;labelBackgroundColor=none;" parent="WIyWlLk6GJQsqaUBKTNV-1" source="WIyWlLk6GJQsqaUBKTNV-6" target="WIyWlLk6GJQsqaUBKTNV-7" edge="1">
          <mxGeometry y="10" relative="1" as="geometry">
            <mxPoint as="offset" />
          </mxGeometry>
        </mxCell>
        <mxCell id="WIyWlLk6GJQsqaUBKTNV-6" value="Lamp&lt;br&gt;plugged in?" style="rhombus;whiteSpace=wrap;html=1;shadow=0;fontFamily=Helvetica;fontSize=12;align=center;strokeWidth=1;spacing=6;spacingTop=-4;" parent="WIyWlLk6GJQsqaUBKTNV-1" vertex="1">
          <mxGeometry x="170" y="170" width="100" height="80" as="geometry" />
        </mxCell>
        <mxCell id="3FntQW1pC2lI2nUd5ULj-1" value="" style="edgeStyle=orthogonalEdgeStyle;rounded=0;orthogonalLoop=1;jettySize=auto;html=1;" edge="1" parent="WIyWlLk6GJQsqaUBKTNV-1" source="WIyWlLk6GJQsqaUBKTNV-7" target="3FntQW1pC2lI2nUd5ULj-0">
          <mxGeometry relative="1" as="geometry" />
        </mxCell>
        <mxCell id="WIyWlLk6GJQsqaUBKTNV-7" value="Plug in lamp" style="rounded=1;whiteSpace=wrap;html=1;fontSize=12;glass=0;strokeWidth=1;shadow=0;" parent="WIyWlLk6GJQsqaUBKTNV-1" vertex="1">
          <mxGeometry x="320" y="190" width="120" height="40" as="geometry" />
        </mxCell>
        <mxCell id="WIyWlLk6GJQsqaUBKTNV-8" value="No" style="rounded=0;html=1;jettySize=auto;orthogonalLoop=1;fontSize=11;endArrow=block;endFill=0;endSize=8;strokeWidth=1;shadow=0;labelBackgroundColor=none;edgeStyle=orthogonalEdgeStyle;" parent="WIyWlLk6GJQsqaUBKTNV-1" source="WIyWlLk6GJQsqaUBKTNV-10" target="WIyWlLk6GJQsqaUBKTNV-11" edge="1">
          <mxGeometry x="0.3333" y="20" relative="1" as="geometry">
            <mxPoint as="offset" />
          </mxGeometry>
        </mxCell>
        <mxCell id="WIyWlLk6GJQsqaUBKTNV-9" value="Yes" style="edgeStyle=orthogonalEdgeStyle;rounded=0;html=1;jettySize=auto;orthogonalLoop=1;fontSize=11;endArrow=block;endFill=0;endSize=8;strokeWidth=1;shadow=0;labelBackgroundColor=none;" parent="WIyWlLk6GJQsqaUBKTNV-1" source="WIyWlLk6GJQsqaUBKTNV-10" target="WIyWlLk6GJQsqaUBKTNV-12" edge="1">
          <mxGeometry y="10" relative="1" as="geometry">
            <mxPoint as="offset" />
          </mxGeometry>
        </mxCell>
        <mxCell id="WIyWlLk6GJQsqaUBKTNV-10" value="Bulb&lt;br&gt;burned out?" style="rhombus;whiteSpace=wrap;html=1;shadow=0;fontFamily=Helvetica;fontSize=12;align=center;strokeWidth=1;spacing=6;spacingTop=-4;" parent="WIyWlLk6GJQsqaUBKTNV-1" vertex="1">
          <mxGeometry x="170" y="290" width="100" height="80" as="geometry" />
        </mxCell>
        <UserObject label="Repair Lamp" link="data:page/id,cYkpgElQa3p-9yvaEDKt" id="WIyWlLk6GJQsqaUBKTNV-11">
          <mxCell style="rounded=1;whiteSpace=wrap;html=1;fontSize=12;glass=0;strokeWidth=1;shadow=0;" parent="WIyWlLk6GJQsqaUBKTNV-1" vertex="1">
            <mxGeometry x="160" y="650" width="120" height="40" as="geometry" />
          </mxCell>
        </UserObject>
        <mxCell id="WIyWlLk6GJQsqaUBKTNV-12" value="Replace Bulb" style="rounded=1;whiteSpace=wrap;html=1;fontSize=12;glass=0;strokeWidth=1;shadow=0;" parent="WIyWlLk6GJQsqaUBKTNV-1" vertex="1">
          <mxGeometry x="320" y="310" width="120" height="40" as="geometry" />
        </mxCell>
        <mxCell id="3FntQW1pC2lI2nUd5ULj-0" value="" style="rhombus;whiteSpace=wrap;html=1;rounded=1;shadow=0;strokeWidth=1;glass=0;" vertex="1" parent="WIyWlLk6GJQsqaUBKTNV-1">
          <mxGeometry x="540" y="170" width="80" height="80" as="geometry" />
        </mxCell>
      </root>
    </mxGraphModel>
  </diagram>
  <diagram id="cYkpgElQa3p-9yvaEDKt" name="第 2 页">
    <mxGraphModel dx="1422" dy="770" grid="1" gridSize="10" guides="1" tooltips="1" connect="1" arrows="1" fold="1" page="1" pageScale="1" pageWidth="827" pageHeight="1169" math="0" shadow="0">
      <root>
        <mxCell id="3wwULrKZ1S6VmpwT-mzY-0" />
        <mxCell id="3wwULrKZ1S6VmpwT-mzY-1" parent="3wwULrKZ1S6VmpwT-mzY-0" />
        <mxCell id="3wwULrKZ1S6VmpwT-mzY-32" value=":Object" style="shape=umlLifeline;perimeter=lifelinePerimeter;whiteSpace=wrap;html=1;container=1;collapsible=0;recursiveResize=0;outlineConnect=0;rounded=1;shadow=0;comic=0;labelBackgroundColor=none;strokeWidth=1;fontFamily=Verdana;fontSize=12;align=center;" vertex="1" parent="3wwULrKZ1S6VmpwT-mzY-1">
          <mxGeometry x="160" y="70" width="100" height="580" as="geometry" />
        </mxCell>
        <mxCell id="3wwULrKZ1S6VmpwT-mzY-33" value="" style="html=1;points=[];perimeter=orthogonalPerimeter;rounded=0;shadow=0;comic=0;labelBackgroundColor=none;strokeWidth=1;fontFamily=Verdana;fontSize=12;align=center;" vertex="1" parent="3wwULrKZ1S6VmpwT-mzY-32">
          <mxGeometry x="45" y="100" width="10" height="230" as="geometry" />
        </mxCell>
        <mxCell id="3wwULrKZ1S6VmpwT-mzY-34" value=":Object" style="shape=umlLifeline;perimeter=lifelinePerimeter;whiteSpace=wrap;html=1;container=1;collapsible=0;recursiveResize=0;outlineConnect=0;rounded=1;shadow=0;comic=0;labelBackgroundColor=none;strokeWidth=1;fontFamily=Verdana;fontSize=12;align=center;" vertex="1" parent="3wwULrKZ1S6VmpwT-mzY-1">
          <mxGeometry x="320" y="70" width="100" height="580" as="geometry" />
        </mxCell>
        <mxCell id="3wwULrKZ1S6VmpwT-mzY-35" value="" style="html=1;points=[];perimeter=orthogonalPerimeter;rounded=0;shadow=0;comic=0;labelBackgroundColor=none;strokeWidth=1;fontFamily=Verdana;fontSize=12;align=center;" vertex="1" parent="3wwULrKZ1S6VmpwT-mzY-34">
          <mxGeometry x="45" y="120" width="10" height="200" as="geometry" />
        </mxCell>
        <mxCell id="3wwULrKZ1S6VmpwT-mzY-36" value=":Object" style="shape=umlLifeline;perimeter=lifelinePerimeter;whiteSpace=wrap;html=1;container=1;collapsible=0;recursiveResize=0;outlineConnect=0;rounded=1;shadow=0;comic=0;labelBackgroundColor=none;strokeWidth=1;fontFamily=Verdana;fontSize=12;align=center;" vertex="1" parent="3wwULrKZ1S6VmpwT-mzY-1">
          <mxGeometry x="460" y="70" width="100" height="580" as="geometry" />
        </mxCell>
        <mxCell id="3wwULrKZ1S6VmpwT-mzY-37" value=":Object" style="shape=umlLifeline;perimeter=lifelinePerimeter;whiteSpace=wrap;html=1;container=1;collapsible=0;recursiveResize=0;outlineConnect=0;rounded=1;shadow=0;comic=0;labelBackgroundColor=none;strokeWidth=1;fontFamily=Verdana;fontSize=12;align=center;" vertex="1" parent="3wwULrKZ1S6VmpwT-mzY-1">
          <mxGeometry x="600" y="70" width="100" height="580" as="geometry" />
        </mxCell>
        <mxCell id="3wwULrKZ1S6VmpwT-mzY-38" value=":Object" style="shape=umlLifeline;perimeter=lifelinePerimeter;whiteSpace=wrap;html=1;container=1;collapsible=0;recursiveResize=0;outlineConnect=0;rounded=1;shadow=0;comic=0;labelBackgroundColor=none;strokeWidth=1;fontFamily=Verdana;fontSize=12;align=center;" vertex="1" parent="3wwULrKZ1S6VmpwT-mzY-1">
          <mxGeometry x="740" y="70" width="100" height="580" as="geometry" />
        </mxCell>
        <mxCell id="3wwULrKZ1S6VmpwT-mzY-39" value=":Object" style="shape=umlLifeline;perimeter=lifelinePerimeter;whiteSpace=wrap;html=1;container=1;collapsible=0;recursiveResize=0;outlineConnect=0;rounded=1;shadow=0;comic=0;labelBackgroundColor=none;strokeWidth=1;fontFamily=Verdana;fontSize=12;align=center;" vertex="1" parent="3wwULrKZ1S6VmpwT-mzY-1">
          <mxGeometry x="880" y="70" width="100" height="580" as="geometry" />
        </mxCell>
        <mxCell id="3wwULrKZ1S6VmpwT-mzY-40" value=":Object" style="shape=umlLifeline;perimeter=lifelinePerimeter;whiteSpace=wrap;html=1;container=1;collapsible=0;recursiveResize=0;outlineConnect=0;rounded=1;shadow=0;comic=0;labelBackgroundColor=none;strokeWidth=1;fontFamily=Verdana;fontSize=12;align=center;" vertex="1" parent="3wwULrKZ1S6VmpwT-mzY-1">
          <mxGeometry x="20" y="70" width="100" height="580" as="geometry" />
        </mxCell>
        <mxCell id="3wwULrKZ1S6VmpwT-mzY-41" value="" style="html=1;points=[];perimeter=orthogonalPerimeter;rounded=0;shadow=0;comic=0;labelBackgroundColor=none;strokeWidth=1;fontFamily=Verdana;fontSize=12;align=center;" vertex="1" parent="3wwULrKZ1S6VmpwT-mzY-40">
          <mxGeometry x="45" y="100" width="10" height="440" as="geometry" />
        </mxCell>
        <mxCell id="3wwULrKZ1S6VmpwT-mzY-42" value="" style="html=1;points=[];perimeter=orthogonalPerimeter;rounded=0;shadow=0;comic=0;labelBackgroundColor=none;strokeWidth=1;fontFamily=Verdana;fontSize=12;align=center;" vertex="1" parent="3wwULrKZ1S6VmpwT-mzY-1">
          <mxGeometry x="505" y="210" width="10" height="180" as="geometry" />
        </mxCell>
        <mxCell id="3wwULrKZ1S6VmpwT-mzY-43" value="dispatch" style="html=1;verticalAlign=bottom;endArrow=block;labelBackgroundColor=none;fontFamily=Verdana;fontSize=12;edgeStyle=elbowEdgeStyle;elbow=vertical;" edge="1" parent="3wwULrKZ1S6VmpwT-mzY-1" source="3wwULrKZ1S6VmpwT-mzY-35" target="3wwULrKZ1S6VmpwT-mzY-42">
          <mxGeometry relative="1" as="geometry">
            <mxPoint x="430" y="210" as="sourcePoint" />
            <Array as="points">
              <mxPoint x="380" y="210" />
            </Array>
          </mxGeometry>
        </mxCell>
        <mxCell id="3wwULrKZ1S6VmpwT-mzY-44" value="" style="html=1;points=[];perimeter=orthogonalPerimeter;rounded=0;shadow=0;comic=0;labelBackgroundColor=none;strokeWidth=1;fontFamily=Verdana;fontSize=12;align=center;" vertex="1" parent="3wwULrKZ1S6VmpwT-mzY-1">
          <mxGeometry x="645" y="220" width="10" height="40" as="geometry" />
        </mxCell>
        <mxCell id="3wwULrKZ1S6VmpwT-mzY-45" value="dispatch" style="html=1;verticalAlign=bottom;endArrow=block;entryX=0;entryY=0;labelBackgroundColor=none;fontFamily=Verdana;fontSize=12;edgeStyle=elbowEdgeStyle;elbow=vertical;" edge="1" parent="3wwULrKZ1S6VmpwT-mzY-1" source="3wwULrKZ1S6VmpwT-mzY-42" target="3wwULrKZ1S6VmpwT-mzY-44">
          <mxGeometry relative="1" as="geometry">
            <mxPoint x="570" y="220" as="sourcePoint" />
          </mxGeometry>
        </mxCell>
        <mxCell id="3wwULrKZ1S6VmpwT-mzY-46" value="return" style="html=1;verticalAlign=bottom;endArrow=open;dashed=1;endSize=8;labelBackgroundColor=none;fontFamily=Verdana;fontSize=12;edgeStyle=elbowEdgeStyle;elbow=vertical;" edge="1" parent="3wwULrKZ1S6VmpwT-mzY-1" source="3wwULrKZ1S6VmpwT-mzY-44" target="3wwULrKZ1S6VmpwT-mzY-42">
          <mxGeometry relative="1" as="geometry">
            <mxPoint x="570" y="296" as="targetPoint" />
            <Array as="points">
              <mxPoint x="590" y="250" />
              <mxPoint x="620" y="250" />
            </Array>
          </mxGeometry>
        </mxCell>
        <mxCell id="3wwULrKZ1S6VmpwT-mzY-47" value="" style="html=1;points=[];perimeter=orthogonalPerimeter;rounded=0;shadow=0;comic=0;labelBackgroundColor=none;strokeWidth=1;fontFamily=Verdana;fontSize=12;align=center;" vertex="1" parent="3wwULrKZ1S6VmpwT-mzY-1">
          <mxGeometry x="505" y="430" width="10" height="140" as="geometry" />
        </mxCell>
        <mxCell id="3wwULrKZ1S6VmpwT-mzY-48" value="dispatch" style="html=1;verticalAlign=bottom;endArrow=block;entryX=0;entryY=0;labelBackgroundColor=none;fontFamily=Verdana;fontSize=12;" edge="1" parent="3wwULrKZ1S6VmpwT-mzY-1" source="3wwULrKZ1S6VmpwT-mzY-41" target="3wwULrKZ1S6VmpwT-mzY-47">
          <mxGeometry relative="1" as="geometry">
            <mxPoint x="430" y="410" as="sourcePoint" />
          </mxGeometry>
        </mxCell>
        <mxCell id="3wwULrKZ1S6VmpwT-mzY-49" value="" style="html=1;points=[];perimeter=orthogonalPerimeter;rounded=0;shadow=0;comic=0;labelBackgroundColor=none;strokeColor=#000000;strokeWidth=1;fillColor=#FFFFFF;fontFamily=Verdana;fontSize=12;fontColor=#000000;align=center;" vertex="1" parent="3wwULrKZ1S6VmpwT-mzY-1">
          <mxGeometry x="925" y="450" width="10" height="30" as="geometry" />
        </mxCell>
        <mxCell id="3wwULrKZ1S6VmpwT-mzY-50" value="dispatch" style="html=1;verticalAlign=bottom;endArrow=block;entryX=0;entryY=0;labelBackgroundColor=none;fontFamily=Verdana;fontSize=12;" edge="1" parent="3wwULrKZ1S6VmpwT-mzY-1" source="3wwULrKZ1S6VmpwT-mzY-47" target="3wwULrKZ1S6VmpwT-mzY-49">
          <mxGeometry relative="1" as="geometry">
            <mxPoint x="850" y="330" as="sourcePoint" />
          </mxGeometry>
        </mxCell>
        <mxCell id="3wwULrKZ1S6VmpwT-mzY-51" value="return" style="html=1;verticalAlign=bottom;endArrow=open;dashed=1;endSize=8;exitX=0;exitY=0.95;labelBackgroundColor=none;fontFamily=Verdana;fontSize=12;" edge="1" parent="3wwULrKZ1S6VmpwT-mzY-1" source="3wwULrKZ1S6VmpwT-mzY-49" target="3wwULrKZ1S6VmpwT-mzY-47">
          <mxGeometry relative="1" as="geometry">
            <mxPoint x="850" y="406" as="targetPoint" />
          </mxGeometry>
        </mxCell>
        <mxCell id="3wwULrKZ1S6VmpwT-mzY-52" value="" style="html=1;points=[];perimeter=orthogonalPerimeter;rounded=0;shadow=0;comic=0;labelBackgroundColor=none;strokeWidth=1;fontFamily=Verdana;fontSize=12;align=center;" vertex="1" parent="3wwULrKZ1S6VmpwT-mzY-1">
          <mxGeometry x="790" y="540" width="10" height="60" as="geometry" />
        </mxCell>
        <mxCell id="3wwULrKZ1S6VmpwT-mzY-53" value="dispatch" style="html=1;verticalAlign=bottom;endArrow=block;entryX=0;entryY=0;labelBackgroundColor=none;fontFamily=Verdana;fontSize=12;edgeStyle=elbowEdgeStyle;elbow=vertical;" edge="1" parent="3wwULrKZ1S6VmpwT-mzY-1" source="3wwULrKZ1S6VmpwT-mzY-60" target="3wwULrKZ1S6VmpwT-mzY-52">
          <mxGeometry relative="1" as="geometry">
            <mxPoint x="720" y="540" as="sourcePoint" />
          </mxGeometry>
        </mxCell>
        <mxCell id="3wwULrKZ1S6VmpwT-mzY-54" value="return" style="html=1;verticalAlign=bottom;endArrow=open;dashed=1;endSize=8;labelBackgroundColor=none;fontFamily=Verdana;fontSize=12;edgeStyle=elbowEdgeStyle;elbow=vertical;" edge="1" parent="3wwULrKZ1S6VmpwT-mzY-1" source="3wwULrKZ1S6VmpwT-mzY-52" target="3wwULrKZ1S6VmpwT-mzY-41">
          <mxGeometry relative="1" as="geometry">
            <mxPoint x="720" y="616" as="targetPoint" />
            <Array as="points">
              <mxPoint x="490" y="590" />
            </Array>
          </mxGeometry>
        </mxCell>
        <mxCell id="3wwULrKZ1S6VmpwT-mzY-55" value="dispatch" style="html=1;verticalAlign=bottom;endArrow=block;entryX=0;entryY=0;labelBackgroundColor=none;fontFamily=Verdana;fontSize=12;edgeStyle=elbowEdgeStyle;elbow=vertical;" edge="1" parent="3wwULrKZ1S6VmpwT-mzY-1" source="3wwULrKZ1S6VmpwT-mzY-41" target="3wwULrKZ1S6VmpwT-mzY-33">
          <mxGeometry relative="1" as="geometry">
            <mxPoint x="140" y="180" as="sourcePoint" />
          </mxGeometry>
        </mxCell>
        <mxCell id="3wwULrKZ1S6VmpwT-mzY-56" value="dispatch" style="html=1;verticalAlign=bottom;endArrow=block;entryX=0;entryY=0;labelBackgroundColor=none;fontFamily=Verdana;fontSize=12;edgeStyle=elbowEdgeStyle;elbow=vertical;" edge="1" parent="3wwULrKZ1S6VmpwT-mzY-1" source="3wwULrKZ1S6VmpwT-mzY-33" target="3wwULrKZ1S6VmpwT-mzY-35">
          <mxGeometry relative="1" as="geometry">
            <mxPoint x="290" y="190" as="sourcePoint" />
          </mxGeometry>
        </mxCell>
        <mxCell id="3wwULrKZ1S6VmpwT-mzY-57" value="" style="html=1;points=[];perimeter=orthogonalPerimeter;rounded=0;shadow=0;comic=0;labelBackgroundColor=none;strokeWidth=1;fontFamily=Verdana;fontSize=12;align=center;" vertex="1" parent="3wwULrKZ1S6VmpwT-mzY-1">
          <mxGeometry x="510" y="290" width="10" height="70" as="geometry" />
        </mxCell>
        <mxCell id="3wwULrKZ1S6VmpwT-mzY-58" value="dispatch" style="html=1;verticalAlign=bottom;endArrow=block;labelBackgroundColor=none;fontFamily=Verdana;fontSize=12;elbow=vertical;edgeStyle=orthogonalEdgeStyle;curved=1;entryX=1;entryY=0.286;entryPerimeter=0;exitX=1.038;exitY=0.345;exitPerimeter=0;" edge="1" parent="3wwULrKZ1S6VmpwT-mzY-1" source="3wwULrKZ1S6VmpwT-mzY-42" target="3wwULrKZ1S6VmpwT-mzY-57">
          <mxGeometry relative="1" as="geometry">
            <mxPoint x="385" y="220" as="sourcePoint" />
            <mxPoint x="515" y="220" as="targetPoint" />
            <Array as="points">
              <mxPoint x="570" y="272" />
              <mxPoint x="570" y="310" />
            </Array>
          </mxGeometry>
        </mxCell>
        <mxCell id="3wwULrKZ1S6VmpwT-mzY-59" value="dispatch" style="html=1;verticalAlign=bottom;endArrow=block;labelBackgroundColor=none;fontFamily=Verdana;fontSize=12;elbow=vertical;edgeStyle=orthogonalEdgeStyle;curved=1;exitX=1.066;exitY=0.713;exitPerimeter=0;" edge="1" parent="3wwULrKZ1S6VmpwT-mzY-1" source="3wwULrKZ1S6VmpwT-mzY-57">
          <mxGeometry relative="1" as="geometry">
            <mxPoint x="530.3333333333333" y="340" as="sourcePoint" />
            <mxPoint x="515" y="379" as="targetPoint" />
            <Array as="points">
              <mxPoint x="570" y="340" />
              <mxPoint x="570" y="379" />
            </Array>
          </mxGeometry>
        </mxCell>
        <mxCell id="3wwULrKZ1S6VmpwT-mzY-60" value="" style="html=1;points=[];perimeter=orthogonalPerimeter;rounded=0;shadow=0;comic=0;labelBackgroundColor=none;strokeWidth=1;fontFamily=Verdana;fontSize=12;align=center;" vertex="1" parent="3wwULrKZ1S6VmpwT-mzY-1">
          <mxGeometry x="510" y="510" width="10" height="40" as="geometry" />
        </mxCell>
        <mxCell id="3wwULrKZ1S6VmpwT-mzY-61" value="dispatch" style="html=1;verticalAlign=bottom;endArrow=block;labelBackgroundColor=none;fontFamily=Verdana;fontSize=12;elbow=vertical;edgeStyle=orthogonalEdgeStyle;curved=1;entryX=1;entryY=0.286;entryPerimeter=0;exitX=1.038;exitY=0.345;exitPerimeter=0;" edge="1" parent="3wwULrKZ1S6VmpwT-mzY-1">
          <mxGeometry relative="1" as="geometry">
            <mxPoint x="515.3333333333335" y="491" as="sourcePoint" />
            <mxPoint x="520.3333333333335" y="529.3333333333334" as="targetPoint" />
            <Array as="points">
              <mxPoint x="570" y="491" />
              <mxPoint x="570" y="529" />
            </Array>
          </mxGeometry>
        </mxCell>
        <mxCell id="3wwULrKZ1S6VmpwT-mzY-62" value="Note" style="shape=note;whiteSpace=wrap;html=1;size=14;verticalAlign=top;align=left;spacingTop=-6;rounded=0;shadow=0;comic=0;labelBackgroundColor=none;strokeWidth=1;fontFamily=Verdana;fontSize=12" vertex="1" parent="3wwULrKZ1S6VmpwT-mzY-1">
          <mxGeometry x="20" y="20" width="100" height="35" as="geometry" />
        </mxCell>
        <mxCell id="3wwULrKZ1S6VmpwT-mzY-63" value="Note" style="shape=note;whiteSpace=wrap;html=1;size=14;verticalAlign=top;align=left;spacingTop=-6;rounded=0;shadow=0;comic=0;labelBackgroundColor=none;strokeWidth=1;fontFamily=Verdana;fontSize=12" vertex="1" parent="3wwULrKZ1S6VmpwT-mzY-1">
          <mxGeometry x="160" y="20" width="100" height="35" as="geometry" />
        </mxCell>
        <mxCell id="3wwULrKZ1S6VmpwT-mzY-64" value="Note" style="shape=note;whiteSpace=wrap;html=1;size=14;verticalAlign=top;align=left;spacingTop=-6;rounded=0;shadow=0;comic=0;labelBackgroundColor=none;strokeWidth=1;fontFamily=Verdana;fontSize=12" vertex="1" parent="3wwULrKZ1S6VmpwT-mzY-1">
          <mxGeometry x="320" y="20" width="100" height="35" as="geometry" />
        </mxCell>
        <mxCell id="3wwULrKZ1S6VmpwT-mzY-65" value="Note" style="shape=note;whiteSpace=wrap;html=1;size=14;verticalAlign=top;align=left;spacingTop=-6;rounded=0;shadow=0;comic=0;labelBackgroundColor=none;strokeWidth=1;fontFamily=Verdana;fontSize=12" vertex="1" parent="3wwULrKZ1S6VmpwT-mzY-1">
          <mxGeometry x="460" y="20" width="100" height="35" as="geometry" />
        </mxCell>
        <mxCell id="3wwULrKZ1S6VmpwT-mzY-66" value="Note" style="shape=note;whiteSpace=wrap;html=1;size=14;verticalAlign=top;align=left;spacingTop=-6;rounded=0;shadow=0;comic=0;labelBackgroundColor=none;strokeWidth=1;fontFamily=Verdana;fontSize=12" vertex="1" parent="3wwULrKZ1S6VmpwT-mzY-1">
          <mxGeometry x="600" y="20" width="100" height="35" as="geometry" />
        </mxCell>
        <mxCell id="3wwULrKZ1S6VmpwT-mzY-67" value="Note" style="shape=note;whiteSpace=wrap;html=1;size=14;verticalAlign=top;align=left;spacingTop=-6;rounded=0;shadow=0;comic=0;labelBackgroundColor=none;strokeWidth=1;fontFamily=Verdana;fontSize=12" vertex="1" parent="3wwULrKZ1S6VmpwT-mzY-1">
          <mxGeometry x="740" y="20" width="100" height="35" as="geometry" />
        </mxCell>
        <mxCell id="3wwULrKZ1S6VmpwT-mzY-68" value="Note" style="shape=note;whiteSpace=wrap;html=1;size=14;verticalAlign=top;align=left;spacingTop=-6;rounded=0;shadow=0;comic=0;labelBackgroundColor=none;strokeWidth=1;fontFamily=Verdana;fontSize=12" vertex="1" parent="3wwULrKZ1S6VmpwT-mzY-1">
          <mxGeometry x="880" y="20" width="100" height="35" as="geometry" />
        </mxCell>
      </root>
    </mxGraphModel>
  </diagram>
</mxfile>
